HIERARCHY
ROOT Hips
{
	OFFSET 52.466499 -5.347144 84.345200
	CHANNELS 6 Xposition Yposition Zposition Xrotation Yrotation Zrotation
	JOINT spine
	{
		OFFSET 0.000000 -0.342408 5.954376
		CHANNELS 3 Xrotation Yrotation Zrotation
		JOINT spine1
		{
			OFFSET 0.000000 -0.000001 8.856018
			CHANNELS 3 Xrotation Yrotation Zrotation
			JOINT spine2
			{
				OFFSET 0.000000 -0.000001 8.485672
				CHANNELS 3 Xrotation Yrotation Zrotation
				JOINT Neck
				{
					OFFSET 0.000000 -1.038703 21.786301
					CHANNELS 3 Xrotation Yrotation Zrotation
					JOINT Head
					{
						OFFSET 0.000000 -0.000001 6.582199
						CHANNELS 3 Xrotation Yrotation Zrotation
						End Site
						{
							OFFSET 0.000000 5.254357 15.932602
						}
					}
				}
				JOINT RightShoulder
				{
					OFFSET -3.573071 0.497524 9.163864
					CHANNELS 3 Xrotation Yrotation Zrotation
					JOINT RightArm
					{
						OFFSET 0.000000 -0.000002 12.019196
						CHANNELS 3 Xrotation Yrotation Zrotation
						JOINT RightArmRoll
						{
							OFFSET 0.000000 -0.000001 6.067551
							CHANNELS 3 Xrotation Yrotation Zrotation
							JOINT RightForeArm
							{
								OFFSET 0.000000 -0.000003 17.672607
								CHANNELS 3 Xrotation Yrotation Zrotation
								JOINT RightForeArmRoll
								{
									OFFSET 0.000000 -0.000001 6.808716
									CHANNELS 3 Xrotation Yrotation Zrotation
									JOINT RightHand
									{
										OFFSET 0.000000 -0.000002 13.663605
										CHANNELS 3 Xrotation Yrotation Zrotation
										End Site
										{
											OFFSET 0.000000 0.000000 0.100006
										}
									}
								}
							}
						}
					}
				}
				JOINT LeftShoulder
				{
					OFFSET 3.573071 0.497524 9.163864
					CHANNELS 3 Xrotation Yrotation Zrotation
					JOINT LeftArm
					{
						OFFSET 0.000000 -0.000002 12.019196
						CHANNELS 3 Xrotation Yrotation Zrotation
						JOINT LeftArmRoll
						{
							OFFSET 0.000000 -0.000001 6.067551
							CHANNELS 3 Xrotation Yrotation Zrotation
							JOINT LeftForeArm
							{
								OFFSET 0.000000 -0.000003 17.672607
								CHANNELS 3 Xrotation Yrotation Zrotation
								JOINT LeftForeArmRoll
								{
									OFFSET 0.000000 -0.000001 6.808716
									CHANNELS 3 Xrotation Yrotation Zrotation
									JOINT LeftHand
									{
										OFFSET 0.000000 -0.000002 13.663605
										CHANNELS 3 Xrotation Yrotation Zrotation
										End Site
										{
											OFFSET 0.000000 0.000000 0.100006
										}
									}
								}
							}
						}
					}
				}
			}
		}
	}
	JOINT RightUpLeg
	{
		OFFSET -5.277740 0.811859 -0.967796
		CHANNELS 3 Xrotation Yrotation Zrotation
		JOINT RightUpLegRoll
		{
			OFFSET 0.000000 -0.000003 16.021400
			CHANNELS 3 Xrotation Yrotation Zrotation
			JOINT RightLeg
			{
				OFFSET 0.000000 0.000003 -19.840103
				CHANNELS 3 Xrotation Yrotation Zrotation
				JOINT RightLegRoll
				{
					OFFSET 0.000000 -0.000003 19.904999
					CHANNELS 3 Xrotation Yrotation Zrotation
					JOINT RightFoot
					{
						OFFSET 0.000000 -0.000003 16.567497
						CHANNELS 3 Xrotation Yrotation Zrotation
						JOINT RightToeBase
						{
							OFFSET 0.000000 -0.000002 13.849602
							CHANNELS 3 Xrotation Yrotation Zrotation
							End Site
							{
								OFFSET 0.005871 0.773116 6.707275
							}
						}
					}
				}
			}
		}
	}
	JOINT LeftUpLeg
	{
		OFFSET 5.277740 0.811859 -0.967796
		CHANNELS 3 Xrotation Yrotation Zrotation
		JOINT LeftUpLegRoll
		{
			OFFSET 0.000000 -0.000003 16.021500
			CHANNELS 3 Xrotation Yrotation Zrotation
			JOINT LeftLeg
			{
				OFFSET 0.000000 -0.000003 19.840004
				CHANNELS 3 Xrotation Yrotation Zrotation
				JOINT LeftLegRoll
				{
					OFFSET 0.000000 -0.000003 20.089005
					CHANNELS 3 Xrotation Yrotation Zrotation
					JOINT LeftFoot
					{
						OFFSET 0.000000 -0.000002 16.383499
						CHANNELS 3 Xrotation Yrotation Zrotation
						JOINT LeftToeBase
						{
							OFFSET 0.000000 -0.000002 13.849594
							CHANNELS 3 Xrotation Yrotation Zrotation
							End Site
							{
								OFFSET -0.026310 0.773116 6.707275
							}
						}
					}
				}
			}
		}
	}
}
MOTION
Frames: 10
Frame Time: 0.041667
51.893600 -2.846294 84.391891 -9.852817 0.904176 -3.698530 -0.259491 -0.354680 0.067169 3.485545 -0.704953 0.131867 5.130668 -0.703282 0.139506 9.261141 4.696151 -1.032470 5.953084 -8.117765 -0.643200 2.685132 -76.125354 0.966943 -53.119119 -110.250981 -54.677187 0.000002 -0.000002 0.000011 -0.027115 3.637871 -1.990748 -0.000000 -0.000002 -3.011609 -5.000155 -7.999909 0.000016 -7.537004 69.063417 9.558709 -38.258140 119.392868 47.925747 0.000001 -0.000003 0.000002 -0.026113 -3.640610 1.990851 -0.000000 0.000006 3.011603 -5.000162 7.999939 -0.000009 4.259637 -179.199206 3.995340 179.999991 -0.000005 -1.202995 172.451116 -3.202070 -0.487109 -0.000002 -0.000002 0.087966 68.530307 6.884400 2.164773 25.456854 -7.355620 -0.000002 4.085632 178.372152 -1.095362 -0.000004 -0.000004 -1.208780 -11.347924 2.295343 0.535577 -0.000007 -0.000003 -0.194580 70.988874 -6.824427 -2.143513 25.456955 7.355613 -0.000000 
51.902195 -2.872471 84.391197 -9.852840 0.905222 -3.697578 -0.259935 -0.353119 0.067168 3.486043 -0.702057 0.131867 5.131174 -0.700388 0.139508 9.282459 4.678584 -1.038402 5.938823 -8.112740 -0.647273 2.682042 -76.143406 0.961417 -53.173067 -110.220463 -54.701954 0.000003 -0.000002 0.000011 -0.027115 3.637871 -1.990749 0.000001 -0.000003 -3.011609 -5.000155 -7.999907 0.000016 -7.495768 69.047311 9.511438 -38.233664 119.377677 47.894547 0.000003 -0.000003 0.000003 -0.026115 -3.640611 1.990852 -0.000001 0.000007 3.011599 -5.000161 7.999938 -0.000008 4.258226 -179.200217 3.994466 179.999991 -0.000005 -1.202996 172.447400 -3.201040 -0.487182 -0.000002 -0.000002 0.087959 68.531045 6.884376 2.164725 25.456858 -7.355621 -0.000002 4.084566 178.370144 -1.096712 -0.000005 -0.000004 -1.208780 -11.350729 2.295546 0.535752 -0.000007 -0.000003 -0.194580 70.988137 -6.824426 -2.143460 25.456952 7.355613 -0.000000 
51.905701 -2.865675 84.393700 -9.852284 0.906405 -3.696272 -0.260566 -0.351495 0.067167 3.486271 -0.699017 0.131868 5.131400 -0.697349 0.139508 9.304743 4.658802 -1.044733 5.923802 -8.106563 -0.651590 2.679036 -76.163760 0.955714 -53.231923 -110.188915 -54.730603 0.000002 -0.000002 0.000011 -0.027115 3.637871 -1.990748 0.000000 -0.000002 -3.011609 -5.000154 -7.999909 0.000016 -7.452286 69.029792 9.461551 -38.206285 119.363840 47.860993 0.000002 -0.000003 0.000003 -0.026116 -3.640610 1.990851 -0.000001 0.000006 3.011602 -5.000162 7.999938 -0.000010 4.256512 -179.202212 3.993345 179.999991 -0.000005 -1.202996 172.444450 -3.199041 -0.487087 -0.000002 -0.000002 0.087955 68.531454 6.884370 2.164698 25.456856 -7.355619 -0.000002 4.082445 178.369133 -1.098051 -0.000005 -0.000004 -1.208780 -11.354133 2.295714 0.535972 -0.000006 -0.000003 -0.194580 70.987263 -6.824396 -2.143608 25.456950 7.355613 -0.000000 
51.906300 -2.845806 84.391701 -9.851318 0.907682 -3.694715 -0.261322 -0.349826 0.067167 3.486308 -0.695876 0.131868 5.131428 -0.694210 0.139508 9.327696 4.637466 -1.051337 5.908261 -8.099582 -0.656069 2.676060 -76.185610 0.949856 -53.293323 -110.156874 -54.760994 0.000003 -0.000002 0.000011 -0.027113 3.637871 -1.990749 0.000000 -0.000003 -3.011610 -5.000154 -7.999907 0.000016 -7.407282 69.011221 9.409889 -38.178384 119.349838 47.827392 0.000001 -0.000003 0.000003 -0.026118 -3.640610 1.990851 0.000000 0.000006 3.011600 -5.000164 7.999939 -0.000008 4.254602 -179.203195 3.992144 179.999991 -0.000005 -1.202997 172.442018 -3.198034 -0.486094 -0.000002 -0.000002 0.087948 68.531666 6.884387 2.164586 25.456860 -7.355623 -0.000003 4.079600 178.367153 -1.099505 -0.000005 -0.000004 -1.208780 -11.358037 2.295840 0.536224 -0.000007 -0.000003 -0.194580 70.986306 -6.824394 -2.143566 25.456952 7.355613 -0.000000 
51.904797 -2.858602 84.390800 -9.850121 0.909014 -3.693024 -0.262154 -0.348132 0.067167 3.486225 -0.692677 0.131868 5.131354 -0.691013 0.139508 9.351039 4.615237 -1.058086 5.892425 -8.092132 -0.660655 2.673106 -76.208362 0.943921 -53.355317 -110.125011 -54.791439 0.000003 -0.000002 0.000011 -0.027115 3.637871 -1.990749 0.000001 -0.000002 -3.011609 -5.000156 -7.999909 0.000016 -7.361462 68.992075 9.357264 -38.150121 119.335726 47.793771 -0.000002 -0.000004 0.000003 -0.026115 -3.640610 1.990852 -0.000003 0.000007 3.011599 -5.000162 7.999938 -0.000008 4.252567 -179.205203 3.990807 179.999991 -0.000005 -1.202996 172.439846 -3.197030 -0.486085 -0.000002 -0.000002 0.087941 68.531775 6.884394 2.164582 25.456854 -7.355621 -0.000001 4.076331 178.365158 -1.100983 -0.000004 -0.000004 -1.208780 -11.362243 2.295953 0.536496 -0.000007 -0.000003 -0.194580 70.985241 -6.824395 -2.143632 25.456950 7.355612 -0.000000 
51.906891 -2.848300 84.391891 -9.848875 0.910358 -3.691291 -0.263001 -0.346432 0.067167 3.486123 -0.689463 0.131869 5.131250 -0.687801 0.139509 9.374470 4.592793 -1.064860 5.876506 -8.084559 -0.665251 2.670144 -76.231318 0.937938 -53.419524 -110.092493 -54.824112 0.000004 -0.000002 0.000011 -0.027113 3.637871 -1.990748 -0.000000 -0.000003 -3.011609 -5.000152 -7.999909 0.000016 -7.315499 68.972828 9.304462 -38.121827 119.321629 47.760207 0.000002 -0.000003 0.000003 -0.026115 -3.640610 1.990852 -0.000001 0.000006 3.011599 -5.000162 7.999938 -0.000010 4.250519 -179.206200 3.989514 179.999991 -0.000005 -1.202996 172.437743 -3.195023 -0.485938 -0.000002 -0.000003 0.087932 68.531980 6.884372 2.164466 25.456858 -7.355621 -0.000002 4.072976 178.363150 -1.102468 -0.000005 -0.000004 -1.208780 -11.366445 2.296057 0.536769 -0.000007 -0.000003 -0.194580 70.984182 -6.824395 -2.143695 25.456952 7.355613 -0.000000 
51.913200 -2.845193 84.393394 -9.847742 0.911677 -3.689631 -0.263815 -0.344743 0.067167 3.486070 -0.686279 0.131869 5.131196 -0.684618 0.139509 9.397716 4.570779 -1.071533 5.860742 -8.077224 -0.669796 2.667170 -76.253871 0.931998 -53.481740 -110.060603 -54.854923 0.000005 -0.000002 0.000010 -0.027112 3.637871 -1.990748 0.000002 -0.000002 -3.011609 -5.000154 -7.999909 0.000017 -7.270013 68.953758 9.252225 -38.092597 119.308365 47.725329 0.000001 -0.000003 0.000003 -0.026116 -3.640610 1.990851 0.000002 0.000006 3.011601 -5.000161 7.999938 -0.000009 4.248516 -179.208181 3.988198 179.999991 -0.000005 -1.202996 172.435502 -3.194018 -0.484934 -0.000002 -0.000002 0.087924 68.532090 6.884378 2.164458 25.456856 -7.355621 -0.000002 4.069818 178.361142 -1.103939 -0.000005 -0.000004 -1.208780 -11.370451 2.296171 0.537031 -0.000006 -0.000003 -0.194580 70.983117 -6.824429 -2.143669 25.456952 7.355613 -0.000001 
51.910500 -2.843232 84.392998 -9.846892 0.912926 -3.688148 -0.264536 -0.343087 0.067167 3.486157 -0.683167 0.131869 5.131293 -0.681506 0.139509 9.420474 4.549867 -1.077985 5.845352 -8.070458 -0.674217 2.664131 -76.275229 0.926133 -53.541788 -110.029252 -54.884074 0.000003 -0.000002 0.000011 -0.027114 3.637871 -1.990749 0.000000 -0.000002 -3.011610 -5.000151 -7.999909 0.000016 -7.225782 68.935419 9.201428 -38.064764 119.294445 47.691666 0.000003 -0.000003 0.000004 -0.026118 -3.640610 1.990853 -0.000001 0.000007 3.011600 -5.000163 7.999938 -0.000007 4.246654 -179.209178 3.987040 179.999991 -0.000005 -1.202996 172.432907 -3.193011 -0.484947 -0.000002 -0.000003 0.087919 68.532404 6.884364 2.164438 25.456851 -7.355619 -0.000001 4.067180 178.359134 -1.105380 -0.000005 -0.000004 -1.208780 -11.374253 2.296307 0.537275 -0.000006 -0.000003 -0.194580 70.982167 -6.824426 -2.143626 25.456952 7.355613 -0.000000 
51.910599 -2.846914 84.395393 -9.846506 0.914068 -3.686946 -0.265109 -0.341481 0.067167 3.486466 -0.680170 0.131869 5.131601 -0.678511 0.139510 9.442473 4.530724 -1.084099 5.830568 -8.064619 -0.678434 2.661048 -76.294880 0.920430 -53.601689 -109.997765 -54.914123 0.000003 -0.000002 0.000011 -0.027112 3.637871 -1.990749 0.000001 -0.000003 -3.011609 -5.000154 -7.999909 0.000016 -7.183452 68.918303 9.152828 -38.038519 119.279924 47.659171 0.000001 -0.000003 0.000003 -0.026117 -3.640610 1.990851 -0.000001 0.000006 3.011601 -5.000163 7.999938 -0.000005 4.245042 -179.211159 3.985969 179.999991 -0.000005 -1.202997 172.429724 -3.190997 -0.484861 -0.000002 -0.000002 0.087912 68.532923 6.884367 2.164305 25.456858 -7.355620 -0.000002 4.065373 178.358137 -1.106699 -0.000005 -0.000004 -1.208780 -11.377457 2.296488 0.537481 -0.000007 -0.000003 -0.194580 70.981313 -6.824430 -2.143679 25.456948 7.355613 -0.000000 
51.909500 -2.854014 84.397690 -9.846760 0.915061 -3.686140 -0.265481 -0.339946 0.067168 3.487083 -0.677332 0.131870 5.132207 -0.675674 0.139510 9.463413 4.514004 -1.089752 5.816612 -8.060040 -0.682382 2.657881 -76.312126 0.914935 -53.654763 -109.967924 -54.938398 0.000004 -0.000002 0.000011 -0.027114 3.637871 -1.990749 0.000002 -0.000003 -3.011609 -5.000154 -7.999907 0.000015 -7.143606 68.902586 9.107135 -38.014196 119.264870 47.627869 0.000001 -0.000003 0.000003 -0.026117 -3.640610 1.990850 -0.000001 0.000006 3.011601 -5.000162 7.999938 -0.000010 4.243751 -179.212170 3.985176 179.999991 -0.000005 -1.202995 172.425749 -3.189979 -0.483953 -0.000002 -0.000003 0.087911 68.533681 6.884382 2.164160 25.456860 -7.355620 -0.000003 4.064713 178.357140 -1.107953 -0.000004 -0.000004 -1.208780 -11.380062 2.296712 0.537641 -0.000007 -0.000003 -0.194580 70.980665 -6.824395 -2.143812 25.456955 7.355613 -0.000000 
